<svg xmlns="http://www.w3.org/2000/svg" width="50.559" height="46.274" viewBox="0 0 50.559 46.274"><g transform="translate(-78.753 -199.632)"><rect width="4" height="7.512" transform="translate(102.689 199.632)" fill="#ff6ad4"/><path d="M122.453,244.406a10.585,10.585,0,0,1-10.57-10.34H97.5a10.585,10.585,0,0,1-10.57,10.34,6.868,6.868,0,0,1-6.861-6.86V218.81a13.68,13.68,0,0,1,13.665-13.665h21.917a13.681,13.681,0,0,1,13.666,13.665v18.736A6.866,6.866,0,0,1,122.453,244.406Zm-25.187-14.34h14.847a3.772,3.772,0,0,1,3.768,3.768,6.579,6.579,0,0,0,6.572,6.572,2.863,2.863,0,0,0,2.861-2.86V218.81a9.677,9.677,0,0,0-9.666-9.665H93.73a9.676,9.676,0,0,0-9.665,9.665v18.736a2.863,2.863,0,0,0,2.861,2.86,6.579,6.579,0,0,0,6.572-6.572A3.772,3.772,0,0,1,97.266,230.066Z" fill="#a06aff"/><path d="M117.183,217.231a2.033,2.033,0,1,1-2.033-2.033A2.033,2.033,0,0,1,117.183,217.231Z" fill="#ff6ad4"/><path d="M120.79,222.135a2.033,2.033,0,1,1-2.033-2.033A2.033,2.033,0,0,1,120.79,222.135Z" fill="#ff6ad4"/><path d="M111.087,227.117h-2.951a.523.523,0,0,1-.523-.523V224.4a.523.523,0,0,1,.523-.523h2.951a.523.523,0,0,1,.523.523v2.193A.523.523,0,0,1,111.087,227.117Z" fill="#a06aff"/><path d="M101.716,227.117H98.765a.523.523,0,0,1-.523-.523V224.4a.523.523,0,0,1,.523-.523h2.951a.523.523,0,0,1,.523.523v2.193A.523.523,0,0,1,101.716,227.117Z" fill="#a06aff"/><path d="M92.642,224.156h0a1.3,1.3,0,0,1-1.305-1.3v-5.5a1.3,1.3,0,0,1,1.305-1.3h0a1.3,1.3,0,0,1,1.305,1.3v5.5A1.3,1.3,0,0,1,92.642,224.156Z" fill="#ff6ad4"/><path d="M96.7,220.033v.137a1.3,1.3,0,0,1-1.305,1.3h-5.5a1.3,1.3,0,0,1-1.305-1.3v-.137a1.3,1.3,0,0,1,1.305-1.3h5.5A1.306,1.306,0,0,1,96.7,220.033Z" fill="#ff6ad4"/><path d="M85.613,245.906a10.585,10.585,0,0,0,10.57-10.34H110.57a10.585,10.585,0,0,0,10.57,10.34,6.868,6.868,0,0,0,6.861-6.86V220.31a13.681,13.681,0,0,0-13.666-13.665h-8.958v-5.512h-4v5.512H92.418A13.68,13.68,0,0,0,78.753,220.31v18.736A6.867,6.867,0,0,0,85.613,245.906Zm-2.861-25.6a9.676,9.676,0,0,1,9.665-9.665h21.917A9.677,9.677,0,0,1,124,220.309v18.736a2.863,2.863,0,0,1-2.861,2.86,6.579,6.579,0,0,1-6.572-6.572,3.773,3.773,0,0,0-3.768-3.768H95.953a3.772,3.772,0,0,0-3.768,3.768,6.579,6.579,0,0,1-6.572,6.572,2.863,2.863,0,0,1-2.861-2.86V220.309Z" fill="#ff6ad4" opacity="0.2"/><path d="M113.838,220.764a2.033,2.033,0,1,0-2.032-2.033A2.033,2.033,0,0,0,113.838,220.764Z" fill="#ff6ad4" opacity="0.2"/><path d="M117.445,225.667a2.033,2.033,0,1,0-2.033-2.033A2.033,2.033,0,0,0,117.445,225.667Z" fill="#ff6ad4" opacity="0.2"/><path d="M106.824,228.617h2.951a.523.523,0,0,0,.523-.523V225.9a.523.523,0,0,0-.523-.523h-2.951a.523.523,0,0,0-.523.523v2.193A.523.523,0,0,0,106.824,228.617Z" fill="#ff6ad4" opacity="0.2"/><path d="M97.453,228.617H100.4a.523.523,0,0,0,.523-.523V225.9a.523.523,0,0,0-.523-.523H97.453a.523.523,0,0,0-.523.523v2.193A.523.523,0,0,0,97.453,228.617Z" fill="#ff6ad4" opacity="0.2"/><path d="M88.581,222.976h1.444v1.375a1.305,1.305,0,0,0,2.61,0v-1.375h1.444a1.3,1.3,0,0,0,1.305-1.3v-.137a1.3,1.3,0,0,0-1.305-1.3H92.635v-1.375a1.305,1.305,0,0,0-2.61,0v1.375H88.581a1.3,1.3,0,0,0-1.305,1.3v.137A1.305,1.305,0,0,0,88.581,222.976Z" fill="#ff6ad4" opacity="0.2"/></g></svg>