<svg xmlns="http://www.w3.org/2000/svg" width="43.635" height="52.913" viewBox="0 0 43.635 52.913"><g transform="translate(-419.657 -196.312)"><rect width="15.19" height="4" transform="translate(433.703 226.934)" fill="#ff6ad4"/><path d="M455.461,236.417a13.169,13.169,0,0,1-11.774,7.309h-3.111a13.171,13.171,0,0,1-11.775-7.309,6.334,6.334,0,0,1-5.232-3.638,17.182,17.182,0,0,0,17.007,14.947h3.111a17.179,17.179,0,0,0,17.006-14.947A6.333,6.333,0,0,1,455.461,236.417Z" fill="#a06aff"/><path d="M458.26,196.312H439.45a16.059,16.059,0,0,0-16.042,16.041V227.8a6.35,6.35,0,0,1,4-3.745v-11.7a12.055,12.055,0,0,1,12.042-12.041h17.4v23.742a6.35,6.35,0,0,1,4,3.745V198.9A2.6,2.6,0,0,0,458.26,196.312Z" fill="#a06aff"/><path d="M439.379,237.714a3.191,3.191,0,1,0,6.381,0Z" fill="#a06aff"/><path d="M454.952,238.442a8.34,8.34,0,1,1,8.34-8.34A8.349,8.349,0,0,1,454.952,238.442Zm0-12.679a4.34,4.34,0,1,0,4.34,4.34A4.344,4.344,0,0,0,454.952,225.763Z" fill="#ff6ad4"/><path d="M429.31,238.442a8.34,8.34,0,1,1,8.339-8.34A8.349,8.349,0,0,1,429.31,238.442Zm0-12.679a4.34,4.34,0,1,0,4.339,4.34A4.345,4.345,0,0,0,429.31,225.763Z" fill="#ff6ad4"/><path d="M441.257,242.4a3.191,3.191,0,0,0,3.191-3.191h-6.381A3.19,3.19,0,0,0,441.257,242.4Z" fill="#ff6ad4" opacity="0.2"/><path d="M423.4,238.553a17.163,17.163,0,0,0,15.864,10.672h3.111a17.162,17.162,0,0,0,15.863-10.672,8.326,8.326,0,0,0,1.3-12.837V200.4a2.6,2.6,0,0,0-2.593-2.593h-18.81A16.059,16.059,0,0,0,422.1,213.853v11.863a8.326,8.326,0,0,0,1.3,12.837Zm.259-6.95a4.339,4.339,0,1,1,4.34,4.34A4.345,4.345,0,0,1,423.658,231.6Zm18.717,13.622h-3.111a13.125,13.125,0,0,1-10.542-5.32,8.351,8.351,0,0,0,7.574-7.472h9.047a8.35,8.35,0,0,0,7.574,7.472A13.127,13.127,0,0,1,442.375,245.225Zm15.6-13.622a4.339,4.339,0,1,1-4.34-4.34A4.345,4.345,0,0,1,457.979,231.6Zm-19.841-29.791h17.4V223.49a8.3,8.3,0,0,0-9.612,4.944H435.708a8.3,8.3,0,0,0-9.612-4.944v-9.637A12.055,12.055,0,0,1,438.138,201.812Z" fill="#ff6ad4" opacity="0.2"/></g></svg>