<svg xmlns="http://www.w3.org/2000/svg" width="51.312" height="41.997" viewBox="0 0 51.312 41.997"><g transform="translate(-415.117 -361.055)"><path d="M456.393,381.728h-2V364.484l2.057-.058h8.1a1.872,1.872,0,0,1,1.871,1.82l.007.238v5.208A10.035,10.035,0,0,1,456.393,381.728Zm2-13.3v8.961a6.045,6.045,0,0,0,4.036-5.7v-3.266Z" fill="#ff6ad4"/><path d="M428.466,381.728h-2a10.036,10.036,0,0,1-10.036-10.036V366.3a1.871,1.871,0,0,1,1.819-1.871l.238-.007h9.922l.057,2.058Zm-8.036-13.3v3.266a6.046,6.046,0,0,0,4.036,5.7v-8.961Z" fill="#ff6ad4"/><path d="M441.64,401.553h-.421a1.789,1.789,0,0,1-1.789-1.789v-6.78h4v6.78A1.791,1.791,0,0,1,441.64,401.553Z" fill="#a06aff"/><path d="M442.338,371.033l1.278,2.589a1.014,1.014,0,0,0,.762.554l2.857.415a1.012,1.012,0,0,1,.561,1.727l-2.068,2.015a1.01,1.01,0,0,0-.291.9l.488,2.846a1.012,1.012,0,0,1-1.469,1.067L441.9,381.8a1.012,1.012,0,0,0-.942,0l-2.555,1.344a1.012,1.012,0,0,1-1.469-1.067l.488-2.846a1.014,1.014,0,0,0-.291-.9l-2.068-2.015a1.013,1.013,0,0,1,.561-1.727l2.857-.415a1.011,1.011,0,0,0,.762-.554l1.278-2.589A1.014,1.014,0,0,1,442.338,371.033Z" fill="#ff6ad4"/><path d="M441.717,394.981c-9.487.159-17.252-7.922-17.252-17.411V362.933a1.872,1.872,0,0,1,1.82-1.871l.237-.007h29.993a1.872,1.872,0,0,1,1.871,1.82l.007.237v14.907A16.984,16.984,0,0,1,441.717,394.981Zm-13.251-29.925V378.02a12.964,12.964,0,0,0,25.928,0V365.056Z" fill="#a06aff"/><path d="M423.647,383.1a17.34,17.34,0,0,0,14.47,13.235v4.925a1.789,1.789,0,0,0,1.789,1.789h.421a1.789,1.789,0,0,0,1.789-1.789v-4.9a17,17,0,0,0,14.578-13.279,10.03,10.03,0,0,0,8.422-9.895v-5.208l-.007-.238a1.872,1.872,0,0,0-1.871-1.82h-6.159v-1.315l-.006-.237a1.872,1.872,0,0,0-1.871-1.82H425.21l-.237.007a1.872,1.872,0,0,0-1.82,1.871v1.494h-5.979l-.238.007a1.871,1.871,0,0,0-1.819,1.871v5.388A10.029,10.029,0,0,0,423.647,383.1Zm37.47-13.176v3.266a6.046,6.046,0,0,1-4.036,5.7v-8.961Zm-33.964-3.371h25.928V379.52a12.964,12.964,0,0,1-25.928,0V366.556Zm-8.036,3.371h4.036v8.961a6.045,6.045,0,0,1-4.036-5.7Z" fill="#ff6ad4" opacity="0.2"/><path d="M435.818,379.834a1.01,1.01,0,0,1,.291.9l-.488,2.845a1.013,1.013,0,0,0,1.469,1.068l2.555-1.344a1.012,1.012,0,0,1,.942,0l2.556,1.344a1.012,1.012,0,0,0,1.469-1.068l-.488-2.845a1.011,1.011,0,0,1,.291-.9l2.067-2.015a1.013,1.013,0,0,0-.561-1.727l-2.858-.415a1.012,1.012,0,0,1-.762-.554l-1.278-2.589a1.012,1.012,0,0,0-1.816,0l-1.278,2.589a1.012,1.012,0,0,1-.762.554l-2.857.415a1.012,1.012,0,0,0-.561,1.727Z" fill="#ff6ad4" opacity="0.2"/></g></svg>